REM DIRINDEX 1\2,1\3,1\4,1\5
REM DIRNAME cjc005,folder01,folder02,folder03,folder04
TITLE ""
FILE "P1Q_t_1230-1239.mp3" MP3
  TRACK 01 AUDIO
    TITLE "3:cjc005_4596"
    INDEX 01 00:00:00
  TRACK 02 AUDIO
    TITLE "0:"
    INDEX 01 00:00:68
  TRACK 03 AUDIO
    TITLE "4:cjc005_4597"
    INDEX 01 00:01:15
  TRACK 04 AUDIO
    TITLE "0:"
    INDEX 01 00:02:45
  TRACK 05 AUDIO
    TITLE "5:cjc005_4598"
    INDEX 01 00:02:71
  TRACK 06 AUDIO
    TITLE "0:"
    INDEX 01 00:05:63
  TRACK 07 AUDIO
    TITLE "3:cjc005_4599"
    INDEX 01 00:06:33
  TRACK 08 AUDIO
    TITLE "0:"
    INDEX 01 00:07:49
  TRACK 09 AUDIO
    TITLE "4:cjc005_4600"
    INDEX 01 00:08:01
  TRACK 10 AUDIO
    TITLE "0:"
    INDEX 01 00:09:49
  TRACK 11 AUDIO
    TITLE "5:cjc005_4601"
    INDEX 01 00:09:71
  TRACK 12 AUDIO
    TITLE "0:"
    INDEX 01 00:15:11
  TRACK 13 AUDIO
    TITLE "3:cjc005_4602"
    INDEX 01 00:15:64
  TRACK 14 AUDIO
    TITLE "0:"
    INDEX 01 00:17:02
  TRACK 15 AUDIO
    TITLE "4:cjc005_4603"
    INDEX 01 00:17:21
  TRACK 16 AUDIO
    TITLE "0:"
    INDEX 01 00:18:48
  TRACK 17 AUDIO
    TITLE "5:cjc005_4604"
    INDEX 01 00:18:72
  TRACK 18 AUDIO
    TITLE "0:"
    INDEX 01 00:22:68
  TRACK 19 AUDIO
    TITLE "3:cjc005_4605"
    INDEX 01 00:23:48
  TRACK 20 AUDIO
    TITLE "0:"
    INDEX 01 00:24:74
  TRACK 21 AUDIO
    TITLE "4:cjc005_4606"
    INDEX 01 00:25:23
  TRACK 22 AUDIO
    TITLE "0:"
    INDEX 01 00:26:71
  TRACK 23 AUDIO
    TITLE "5:cjc005_4607"
    INDEX 01 00:27:18
  TRACK 24 AUDIO
    TITLE "0:"
    INDEX 01 00:31:51
  TRACK 25 AUDIO
    TITLE "3:cjc005_4608"
    INDEX 01 00:32:23
  TRACK 26 AUDIO
    TITLE "0:"
    INDEX 01 00:33:40
  TRACK 27 AUDIO
    TITLE "4:cjc005_4609"
    INDEX 01 00:33:71
  TRACK 28 AUDIO
    TITLE "0:"
    INDEX 01 00:35:15
  TRACK 29 AUDIO
    TITLE "5:cjc005_4610"
    INDEX 01 00:35:41
  TRACK 30 AUDIO
    TITLE "0:"
    INDEX 01 00:39:62
  TRACK 31 AUDIO
    TITLE "3:cjc005_4611"
    INDEX 01 00:40:44
  TRACK 32 AUDIO
    TITLE "0:"
    INDEX 01 00:41:45
  TRACK 33 AUDIO
    TITLE "4:cjc005_4612"
    INDEX 01 00:41:73
  TRACK 34 AUDIO
    TITLE "0:"
    INDEX 01 00:42:70
  TRACK 35 AUDIO
    TITLE "5:cjc005_4613"
    INDEX 01 00:43:23
  TRACK 36 AUDIO
    TITLE "0:"
    INDEX 01 00:47:07
  TRACK 37 AUDIO
    TITLE "3:cjc005_4614"
    INDEX 01 00:47:56
  TRACK 38 AUDIO
    TITLE "0:"
    INDEX 01 00:48:69
  TRACK 39 AUDIO
    TITLE "4:cjc005_4615"
    INDEX 01 00:49:25
  TRACK 40 AUDIO
    TITLE "0:"
    INDEX 01 00:50:31
  TRACK 41 AUDIO
    TITLE "5:cjc005_4616"
    INDEX 01 00:50:50
  TRACK 42 AUDIO
    TITLE "0:"
    INDEX 01 00:55:71
  TRACK 43 AUDIO
    TITLE "3:cjc005_4617"
    INDEX 01 00:56:49
  TRACK 44 AUDIO
    TITLE "0:"
    INDEX 01 00:57:60
  TRACK 45 AUDIO
    TITLE "4:cjc005_4618"
    INDEX 01 00:58:17
  TRACK 46 AUDIO
    TITLE "0:"
    INDEX 01 00:59:20
  TRACK 47 AUDIO
    TITLE "5:cjc005_4619"
    INDEX 01 00:59:41
  TRACK 48 AUDIO
    TITLE "0:"
    INDEX 01 01:02:14
  TRACK 49 AUDIO
    TITLE "3:cjc005_4620"
    INDEX 01 01:02:63
  TRACK 50 AUDIO
    TITLE "0:"
    INDEX 01 01:04:01
  TRACK 51 AUDIO
    TITLE "4:cjc005_4621"
    INDEX 01 01:04:29
  TRACK 52 AUDIO
    TITLE "0:"
    INDEX 01 01:05:32
  TRACK 53 AUDIO
    TITLE "5:cjc005_4622"
    INDEX 01 01:05:60
  TRACK 54 AUDIO
    TITLE "0:"
    INDEX 01 01:08:25
  TRACK 55 AUDIO
    TITLE "3:cjc005_4623"
    INDEX 01 01:09:03
  TRACK 56 AUDIO
    TITLE "0:"
    INDEX 01 01:10:16
  TRACK 57 AUDIO
    TITLE "4:cjc005_4624"
    INDEX 01 01:10:43
  TRACK 58 AUDIO
    TITLE "0:"
    INDEX 01 01:11:52
  TRACK 59 AUDIO
    TITLE "5:cjc005_4625"
    INDEX 01 01:12:01
  TRACK 60 AUDIO
    TITLE "0:"
    INDEX 01 01:15:01
